<svg width="40" height="40" viewBox="0 0 40 40" fill="none" xmlns="http://www.w3.org/2000/svg">
<g clip-path="url(#clip0_16_36)">
<path d="M19.9227 0.546875C8.92109 0.546875 0 9.46641 0 20.4695C0 29.272 5.70844 36.7398 13.6244 39.3742C14.62 39.5586 14.9856 38.942 14.9856 38.4158C14.9856 37.9408 14.967 36.3712 14.9586 34.7066C9.41594 35.9117 8.24641 32.3559 8.24641 32.3559C7.34016 30.0531 6.03437 29.4409 6.03437 29.4409C4.22687 28.2044 6.17063 28.2297 6.17063 28.2297C8.17125 28.3703 9.22469 30.2828 9.22469 30.2828C11.0016 33.3286 13.8853 32.448 15.0222 31.9391C15.2009 30.6513 15.7173 29.7725 16.287 29.275C11.862 28.7711 7.21016 27.0628 7.21016 19.4291C7.21016 17.2541 7.98844 15.4767 9.26297 14.0816C9.05609 13.5797 8.37422 11.5534 9.45594 8.80922C9.45594 8.80922 11.1289 8.27375 14.9361 10.8514C16.5252 10.4098 18.2295 10.1886 19.9227 10.1811C21.6158 10.1886 23.3214 10.4098 24.9136 10.8514C28.7163 8.27375 30.3869 8.80922 30.3869 8.80922C31.4712 11.5534 30.7891 13.5797 30.5822 14.0816C31.8595 15.4767 32.6325 17.2539 32.6325 19.4291C32.6325 27.0809 27.9719 28.7659 23.5356 29.2591C24.2502 29.8773 24.8869 31.0898 24.8869 32.9484C24.8869 35.6141 24.8638 37.7595 24.8638 38.4158C24.8638 38.9459 25.2223 39.5672 26.2323 39.3716C34.1439 36.7342 39.8452 29.2691 39.8452 20.4695C39.8452 9.46641 30.9253 0.546875 19.9227 0.546875Z" fill="#414141"/>
<path d="M7.46182 28.9272C7.41807 29.0261 7.26214 29.0558 7.12042 28.988C6.97589 28.923 6.89464 28.788 6.94151 28.6886C6.98448 28.5867 7.14042 28.5583 7.28464 28.6267C7.42948 28.6916 7.51198 28.8278 7.46182 28.9272M8.44182 29.8016C8.34682 29.8897 8.16104 29.8488 8.03495 29.7095C7.90464 29.5706 7.88026 29.385 7.97667 29.2955C8.07464 29.2075 8.25479 29.2486 8.38542 29.3877C8.51573 29.5281 8.54104 29.7127 8.44167 29.8017M9.11417 30.9203C8.99198 31.0052 8.79229 30.9256 8.66901 30.7484C8.54698 30.5714 8.54698 30.3589 8.67167 30.2738C8.79542 30.1886 8.99198 30.2652 9.11698 30.4409C9.23886 30.6211 9.23886 30.8336 9.11401 30.9205M10.251 32.2161C10.1418 32.3364 9.90932 32.3042 9.73901 32.1398C9.56495 31.9792 9.51636 31.7513 9.62589 31.6308C9.73636 31.5102 9.97026 31.5441 10.1418 31.707C10.3148 31.8673 10.3676 32.097 10.2512 32.2161M11.7204 32.6536C11.6725 32.8095 11.4484 32.8805 11.2228 32.8142C10.9974 32.7459 10.85 32.5631 10.8954 32.4055C10.9423 32.2484 11.1673 32.1745 11.3946 32.2455C11.6196 32.3134 11.7675 32.4948 11.7206 32.6536M13.3929 32.8391C13.3985 33.0034 13.2071 33.1397 12.9703 33.1427C12.732 33.1478 12.5393 33.0148 12.5368 32.8533C12.5368 32.6873 12.7239 32.5523 12.962 32.5484C13.1989 32.5438 13.3929 32.6758 13.3929 32.8391M15.0357 32.7761C15.0642 32.9364 14.8995 33.1011 14.6643 33.1448C14.4331 33.187 14.219 33.0881 14.1895 32.9292C14.1607 32.7648 14.3285 32.6003 14.5593 32.5577C14.795 32.5167 15.0057 32.6131 15.0357 32.7761" fill="#414141"/>
</g>
<defs>
<clipPath id="clip0_16_36">
<rect width="40" height="40" fill="white"/>
</clipPath>
</defs>
</svg>
