<svg width="166" height="32" viewBox="0 0 166 32" fill="none" xmlns="http://www.w3.org/2000/svg">
<path d="M35.6684 16.8191H4.28574C3.62823 16.8191 3.09131 17.3765 3.1516 18.0344C3.8407 25.8489 11.1107 32 19.9771 32C28.8435 32 36.1134 25.8518 36.8025 18.0344C36.86 17.3765 36.3259 16.8191 35.6684 16.8191Z" fill="#FF6633"/>
<path fill-rule="evenodd" clip-rule="evenodd" d="M0.225147 3.33137C1.7887 1.27854 4.60645 0 7.711 0C10.8155 0 13.6333 1.27854 15.1969 3.33137C15.5659 3.81589 15.4714 4.50716 14.9858 4.87537C14.5001 5.24357 13.8073 5.14928 13.4383 4.66476C12.3661 3.25707 10.2569 2.20377 7.711 2.20377C5.16509 2.20377 3.05591 3.25707 1.98374 4.66476C1.6147 5.14928 0.921857 5.24357 0.436236 4.87537C-0.0493858 4.50716 -0.143894 3.81589 0.225147 3.33137Z" fill="#414141"/>
<path fill-rule="evenodd" clip-rule="evenodd" d="M24.7673 3.33137C26.3308 1.27854 29.1486 0 32.2531 0C35.3553 0 38.1722 1.27884 39.7383 3.33045C40.1078 3.81458 40.014 4.50596 39.5288 4.87467C39.0436 5.24338 38.3506 5.14981 37.9811 4.66568C36.9056 3.25676 34.7956 2.20377 32.2531 2.20377C29.7072 2.20377 27.598 3.25707 26.5259 4.66476C26.1568 5.14928 25.464 5.24357 24.9784 4.87537C24.4927 4.50716 24.3982 3.81589 24.7673 3.33137Z" fill="#414141"/>
<path d="M51.8054 22.16C50.824 22.16 49.9707 22 49.2454 21.68C48.52 21.36 47.9547 20.88 47.5494 20.24C47.144 19.5893 46.92 18.7787 46.8774 17.808C46.8667 17.3493 46.8614 16.8907 46.8614 16.432C46.8614 15.9733 46.8667 15.5093 46.8774 15.04C46.92 14.08 47.144 13.2747 47.5494 12.624C47.9654 11.9627 48.536 11.4667 49.2614 11.136C49.9867 10.8053 50.8347 10.64 51.8054 10.64C52.7654 10.64 53.608 10.8053 54.3334 11.136C55.0694 11.4667 55.6454 11.9627 56.0614 12.624C56.4774 13.2747 56.7014 14.08 56.7334 15.04C56.7547 15.5093 56.7654 15.9733 56.7654 16.432C56.7654 16.8907 56.7547 17.3493 56.7334 17.808C56.6907 18.7787 56.4667 19.5893 56.0614 20.24C55.656 20.88 55.0907 21.36 54.3654 21.68C53.64 22 52.7867 22.16 51.8054 22.16ZM51.8054 19.856C52.3707 19.856 52.8294 19.6853 53.1814 19.344C53.544 19.0027 53.736 18.4587 53.7574 17.712C53.7787 17.2427 53.7894 16.8 53.7894 16.384C53.7894 15.968 53.7787 15.536 53.7574 15.088C53.736 14.5867 53.64 14.1813 53.4694 13.872C53.3094 13.552 53.0854 13.3173 52.7974 13.168C52.5094 13.0187 52.1787 12.944 51.8054 12.944C51.4427 12.944 51.1174 13.0187 50.8294 13.168C50.5414 13.3173 50.312 13.552 50.1414 13.872C49.9707 14.1813 49.8747 14.5867 49.8534 15.088C49.8427 15.536 49.8374 15.968 49.8374 16.384C49.8374 16.8 49.8427 17.2427 49.8534 17.712C49.8854 18.4587 50.0774 19.0027 50.4294 19.344C50.7814 19.6853 51.24 19.856 51.8054 19.856ZM59.02 22C58.9027 22 58.8067 21.9627 58.732 21.888C58.6573 21.8133 58.62 21.7173 58.62 21.6V11.2C58.62 11.0827 58.6573 10.9867 58.732 10.912C58.8067 10.8373 58.9027 10.8 59.02 10.8H60.716C60.8973 10.8 61.0253 10.8427 61.1 10.928C61.1853 11.0027 61.2387 11.0613 61.26 11.104L65.164 17.264V11.2C65.164 11.0827 65.2013 10.9867 65.276 10.912C65.3507 10.8373 65.4467 10.8 65.564 10.8H67.484C67.6013 10.8 67.6973 10.8373 67.772 10.912C67.8467 10.9867 67.884 11.0827 67.884 11.2V21.6C67.884 21.7067 67.8467 21.8027 67.772 21.888C67.6973 21.9627 67.6013 22 67.484 22H65.772C65.6013 22 65.4733 21.9573 65.388 21.872C65.3133 21.7867 65.2653 21.728 65.244 21.696L61.34 15.776V21.6C61.34 21.7173 61.3027 21.8133 61.228 21.888C61.1533 21.9627 61.0573 22 60.94 22H59.02ZM70.52 22C70.4027 22 70.3067 21.9627 70.232 21.888C70.1573 21.8133 70.12 21.7173 70.12 21.6V11.2C70.12 11.0827 70.1573 10.9867 70.232 10.912C70.3067 10.8373 70.4027 10.8 70.52 10.8H72.632C72.7387 10.8 72.8293 10.8373 72.904 10.912C72.9893 10.9867 73.032 11.0827 73.032 11.2V19.584H77.864C77.9813 19.584 78.0773 19.6267 78.152 19.712C78.2373 19.7867 78.28 19.8827 78.28 20V21.6C78.28 21.7173 78.2373 21.8133 78.152 21.888C78.0773 21.9627 77.9813 22 77.864 22H70.52ZM80.0669 22C79.9495 22 79.8535 21.9627 79.7789 21.888C79.7042 21.8133 79.6669 21.7173 79.6669 21.6V11.2C79.6669 11.0827 79.7042 10.9867 79.7789 10.912C79.8535 10.8373 79.9495 10.8 80.0669 10.8H82.2109C82.3282 10.8 82.4242 10.8373 82.4989 10.912C82.5735 10.9867 82.6109 11.0827 82.6109 11.2V21.6C82.6109 21.7173 82.5735 21.8133 82.4989 21.888C82.4242 21.9627 82.3282 22 82.2109 22H80.0669ZM85.2544 22C85.137 22 85.041 21.9627 84.9664 21.888C84.8917 21.8133 84.8544 21.7173 84.8544 21.6V11.2C84.8544 11.0827 84.8917 10.9867 84.9664 10.912C85.041 10.8373 85.137 10.8 85.2544 10.8H86.9504C87.1317 10.8 87.2597 10.8427 87.3344 10.928C87.4197 11.0027 87.473 11.0613 87.4944 11.104L91.3984 17.264V11.2C91.3984 11.0827 91.4357 10.9867 91.5104 10.912C91.585 10.8373 91.681 10.8 91.7984 10.8H93.7184C93.8357 10.8 93.9317 10.8373 94.0064 10.912C94.081 10.9867 94.1184 11.0827 94.1184 11.2V21.6C94.1184 21.7067 94.081 21.8027 94.0064 21.888C93.9317 21.9627 93.8357 22 93.7184 22H92.0064C91.8357 22 91.7077 21.9573 91.6224 21.872C91.5477 21.7867 91.4997 21.728 91.4784 21.696L87.5744 15.776V21.6C87.5744 21.7173 87.537 21.8133 87.4624 21.888C87.3877 21.9627 87.2917 22 87.1744 22H85.2544ZM96.7544 22C96.637 22 96.541 21.9627 96.4664 21.888C96.3917 21.8133 96.3544 21.7173 96.3544 21.6V11.2C96.3544 11.0827 96.3917 10.9867 96.4664 10.912C96.541 10.8373 96.637 10.8 96.7544 10.8H104.226C104.344 10.8 104.44 10.8373 104.514 10.912C104.589 10.9867 104.626 11.0827 104.626 11.2V12.704C104.626 12.8213 104.589 12.9173 104.514 12.992C104.44 13.0667 104.344 13.104 104.226 13.104H99.1224V15.264H103.874C103.992 15.264 104.088 15.3067 104.162 15.392C104.237 15.4667 104.274 15.5627 104.274 15.68V17.072C104.274 17.1787 104.237 17.2747 104.162 17.36C104.088 17.4347 103.992 17.472 103.874 17.472H99.1224V19.696H104.354C104.472 19.696 104.568 19.7333 104.642 19.808C104.717 19.8827 104.754 19.9787 104.754 20.096V21.6C104.754 21.7173 104.717 21.8133 104.642 21.888C104.568 21.9627 104.472 22 104.354 22H96.7544ZM106.656 18.352C106.538 18.352 106.442 18.3147 106.368 18.24C106.293 18.1653 106.256 18.0693 106.256 17.952V16.448C106.256 16.3307 106.293 16.2347 106.368 16.16C106.442 16.0853 106.538 16.048 106.656 16.048H111.664C111.781 16.048 111.877 16.0853 111.952 16.16C112.026 16.2347 112.064 16.3307 112.064 16.448V17.952C112.064 18.0693 112.026 18.1653 111.952 18.24C111.877 18.3147 111.781 18.352 111.664 18.352H106.656ZM118.124 22.16C117.057 22.16 116.172 22.0107 115.468 21.712C114.764 21.4027 114.231 21.0027 113.868 20.512C113.505 20.0213 113.313 19.4987 113.292 18.944C113.292 18.8587 113.324 18.784 113.388 18.72C113.463 18.6453 113.548 18.608 113.644 18.608H115.66C115.809 18.608 115.921 18.6347 115.996 18.688C116.081 18.7413 116.156 18.8107 116.22 18.896C116.305 19.056 116.423 19.2107 116.572 19.36C116.732 19.5093 116.935 19.632 117.18 19.728C117.436 19.8133 117.751 19.856 118.124 19.856C118.743 19.856 119.207 19.76 119.516 19.568C119.836 19.376 119.996 19.1147 119.996 18.784C119.996 18.5493 119.911 18.3573 119.74 18.208C119.569 18.048 119.292 17.9093 118.908 17.792C118.535 17.664 118.033 17.536 117.404 17.408C116.593 17.2373 115.9 17.0187 115.324 16.752C114.759 16.4747 114.327 16.1173 114.028 15.68C113.729 15.232 113.58 14.6773 113.58 14.016C113.58 13.3653 113.761 12.784 114.124 12.272C114.497 11.76 115.015 11.36 115.676 11.072C116.337 10.784 117.121 10.64 118.028 10.64C118.764 10.64 119.409 10.736 119.964 10.928C120.529 11.12 121.004 11.376 121.388 11.696C121.772 12.016 122.06 12.3573 122.252 12.72C122.455 13.072 122.561 13.4187 122.572 13.76C122.572 13.8453 122.54 13.9253 122.476 14C122.412 14.064 122.332 14.096 122.236 14.096H120.124C120.007 14.096 119.905 14.0747 119.82 14.032C119.735 13.9893 119.66 13.92 119.596 13.824C119.532 13.5893 119.361 13.3867 119.084 13.216C118.817 13.0347 118.465 12.944 118.028 12.944C117.559 12.944 117.191 13.0293 116.924 13.2C116.668 13.36 116.54 13.6107 116.54 13.952C116.54 14.1653 116.609 14.352 116.748 14.512C116.897 14.672 117.137 14.8107 117.468 14.928C117.809 15.0453 118.273 15.168 118.86 15.296C119.831 15.4773 120.615 15.7067 121.212 15.984C121.809 16.2507 122.247 16.6027 122.524 17.04C122.801 17.4667 122.94 18.0053 122.94 18.656C122.94 19.3813 122.732 20.0107 122.316 20.544C121.911 21.0667 121.345 21.4667 120.62 21.744C119.895 22.0213 119.063 22.16 118.124 22.16ZM127.297 22C127.179 22 127.083 21.9627 127.009 21.888C126.934 21.8133 126.897 21.7173 126.897 21.6V13.312H124.049C123.931 13.312 123.835 13.2747 123.761 13.2C123.686 13.1147 123.649 13.0187 123.649 12.912V11.2C123.649 11.0827 123.686 10.9867 123.761 10.912C123.835 10.8373 123.931 10.8 124.049 10.8H132.657C132.774 10.8 132.87 10.8373 132.945 10.912C133.019 10.9867 133.057 11.0827 133.057 11.2V12.912C133.057 13.0187 133.019 13.1147 132.945 13.2C132.87 13.2747 132.774 13.312 132.657 13.312H129.809V21.6C129.809 21.7173 129.771 21.8133 129.697 21.888C129.622 21.9627 129.526 22 129.409 22H127.297ZM138.915 22.16C137.933 22.16 137.08 22 136.355 21.68C135.629 21.36 135.064 20.88 134.659 20.24C134.253 19.5893 134.029 18.7787 133.987 17.808C133.976 17.3493 133.971 16.8907 133.971 16.432C133.971 15.9733 133.976 15.5093 133.987 15.04C134.029 14.08 134.253 13.2747 134.659 12.624C135.075 11.9627 135.645 11.4667 136.371 11.136C137.096 10.8053 137.944 10.64 138.915 10.64C139.875 10.64 140.717 10.8053 141.443 11.136C142.179 11.4667 142.755 11.9627 143.171 12.624C143.587 13.2747 143.811 14.08 143.843 15.04C143.864 15.5093 143.875 15.9733 143.875 16.432C143.875 16.8907 143.864 17.3493 143.843 17.808C143.8 18.7787 143.576 19.5893 143.171 20.24C142.765 20.88 142.2 21.36 141.475 21.68C140.749 22 139.896 22.16 138.915 22.16ZM138.915 19.856C139.48 19.856 139.939 19.6853 140.291 19.344C140.653 19.0027 140.845 18.4587 140.867 17.712C140.888 17.2427 140.899 16.8 140.899 16.384C140.899 15.968 140.888 15.536 140.867 15.088C140.845 14.5867 140.749 14.1813 140.579 13.872C140.419 13.552 140.195 13.3173 139.907 13.168C139.619 13.0187 139.288 12.944 138.915 12.944C138.552 12.944 138.227 13.0187 137.939 13.168C137.651 13.3173 137.421 13.552 137.251 13.872C137.08 14.1813 136.984 14.5867 136.963 15.088C136.952 15.536 136.947 15.968 136.947 16.384C136.947 16.8 136.952 17.2427 136.963 17.712C136.995 18.4587 137.187 19.0027 137.539 19.344C137.891 19.6853 138.349 19.856 138.915 19.856ZM146.129 22C146.012 22 145.916 21.9627 145.841 21.888C145.767 21.8133 145.729 21.7173 145.729 21.6V11.2C145.729 11.0827 145.767 10.9867 145.841 10.912C145.916 10.8373 146.012 10.8 146.129 10.8H150.481C151.857 10.8 152.94 11.12 153.729 11.76C154.529 12.3893 154.929 13.2853 154.929 14.448C154.929 15.2053 154.743 15.8453 154.369 16.368C154.007 16.8907 153.527 17.2853 152.929 17.552L155.137 21.488C155.169 21.552 155.185 21.6107 155.185 21.664C155.185 21.7493 155.148 21.8293 155.073 21.904C155.009 21.968 154.929 22 154.833 22H152.721C152.519 22 152.369 21.952 152.273 21.856C152.177 21.7493 152.108 21.6533 152.065 21.568L150.241 18.048H148.593V21.6C148.593 21.7173 148.556 21.8133 148.481 21.888C148.407 21.9627 148.311 22 148.193 22H146.129ZM148.593 15.792H150.449C150.951 15.792 151.324 15.6693 151.569 15.424C151.825 15.1787 151.953 14.8427 151.953 14.416C151.953 14 151.831 13.664 151.585 13.408C151.351 13.152 150.972 13.024 150.449 13.024H148.593V15.792ZM157.192 22C157.075 22 156.979 21.9627 156.904 21.888C156.829 21.8133 156.792 21.7173 156.792 21.6V11.2C156.792 11.0827 156.829 10.9867 156.904 10.912C156.979 10.8373 157.075 10.8 157.192 10.8H164.664C164.781 10.8 164.877 10.8373 164.952 10.912C165.027 10.9867 165.064 11.0827 165.064 11.2V12.704C165.064 12.8213 165.027 12.9173 164.952 12.992C164.877 13.0667 164.781 13.104 164.664 13.104H159.56V15.264H164.312C164.429 15.264 164.525 15.3067 164.6 15.392C164.675 15.4667 164.712 15.5627 164.712 15.68V17.072C164.712 17.1787 164.675 17.2747 164.6 17.36C164.525 17.4347 164.429 17.472 164.312 17.472H159.56V19.696H164.792C164.909 19.696 165.005 19.7333 165.08 19.808C165.155 19.8827 165.192 19.9787 165.192 20.096V21.6C165.192 21.7173 165.155 21.8133 165.08 21.888C165.005 21.9627 164.909 22 164.792 22H157.192Z" fill="#414141"/>
</svg>
