<svg width="107" height="40" viewBox="0 0 107 40" fill="none" xmlns="http://www.w3.org/2000/svg">
<g clip-path="url(#clip0_16_25)">
<path d="M55.242 13.2489L60.3327 12.9176C60.4488 13.7554 60.6617 14.3789 61.0101 14.827C61.5715 15.5285 62.3457 15.8792 63.3716 15.8792C64.1264 15.8792 64.7265 15.7038 65.133 15.3336C65.5201 15.0414 65.7524 14.5738 65.7524 14.0867C65.7524 13.6191 65.5394 13.1709 65.1717 12.8787C64.7846 12.528 63.8748 12.1773 62.4425 11.8655C60.1004 11.3395 58.4164 10.6381 57.4293 9.74181C56.4421 8.90401 55.8808 7.67654 55.9195 6.37113C55.9195 5.47488 56.1905 4.57863 56.6937 3.83825C57.2744 3.00045 58.068 2.33801 59.0165 1.96782C60.0423 1.51969 61.4747 1.28589 63.2748 1.28589C65.4814 1.28589 67.1653 1.69505 68.3267 2.53284C69.4881 3.35116 70.1849 4.67605 70.3978 6.48803L65.3652 6.78029C65.2297 6.00094 64.9588 5.43591 64.5136 5.06572C64.0684 4.69553 63.4877 4.52018 62.7328 4.52018C62.1134 4.52018 61.6489 4.65657 61.3392 4.90985C61.0488 5.14366 60.8553 5.49436 60.8746 5.88404C60.8746 6.17629 61.0295 6.44906 61.2618 6.62442C61.5134 6.85822 62.1134 7.07254 63.0619 7.26738C65.4039 7.77396 67.0686 8.28053 68.0944 8.80659C69.1203 9.33265 69.8558 9.97561 70.301 10.7355C70.7656 11.5148 70.9978 12.4111 70.9785 13.3268C70.9785 14.4179 70.6688 15.509 70.0494 16.4247C69.4106 17.3794 68.5203 18.1198 67.475 18.5679C66.3717 19.055 64.9781 19.3083 63.3135 19.3083C60.3714 19.3083 58.339 18.7433 57.197 17.5937C56.055 16.4442 55.3775 15.0024 55.242 13.2489ZM1.21943 19.016V1.59763H10.1425C11.7878 1.59763 13.0653 1.73401 13.9363 2.02627C14.788 2.29904 15.5429 2.86407 16.0461 3.62393C16.6075 4.46173 16.8784 5.43591 16.8591 6.44906C16.9171 8.16363 16.0461 9.80026 14.5557 10.6575C13.975 10.9888 13.3363 11.2226 12.6782 11.3395C13.1621 11.4759 13.646 11.7097 14.0718 11.9824C14.4009 12.2552 14.6719 12.5669 14.9235 12.8982C15.2138 13.2294 15.4654 13.5996 15.6784 13.9893L18.2721 19.0355H12.1943L9.32959 13.6775C8.96183 12.9956 8.65213 12.5475 8.36179 12.3331C7.97467 12.0604 7.51013 11.924 7.04559 11.924H6.58104V18.9966H1.21943V19.016ZM6.58104 8.65072H8.84569C9.32959 8.61175 9.79414 8.53382 10.2587 8.41692C10.6071 8.35847 10.9168 8.16363 11.1297 7.87137C11.6523 7.16996 11.5749 6.17629 10.9361 5.5723C10.5877 5.28004 9.91027 5.12417 8.94247 5.12417H6.58104V8.65072ZM0 33.9405L5.09063 33.6093C5.20677 34.4471 5.41968 35.0706 5.76809 35.5187C6.31006 36.2201 7.10365 36.5903 8.12952 36.5903C8.88441 36.5903 9.48444 36.415 9.89092 36.0448C10.278 35.733 10.5103 35.2849 10.5103 34.7978C10.5103 34.3302 10.2974 33.8821 9.92963 33.5898C9.54251 33.2391 8.63278 32.8884 7.18108 32.5767C4.839 32.0506 3.15503 31.3492 2.16787 30.453C1.18072 29.6152 0.619392 28.3877 0.658104 27.0823C0.658104 26.186 0.929088 25.2898 1.43234 24.5494C2.01302 23.7116 2.80662 23.0492 3.75506 22.679C4.78093 22.2308 6.21328 21.997 8.01339 21.997C10.22 21.997 11.9039 22.4062 13.0653 23.244C14.2267 24.0818 14.9041 25.3872 15.117 27.1992L10.0845 27.4914C9.94899 26.7121 9.678 26.1471 9.23281 25.7769C8.80698 25.4067 8.20695 25.2313 7.45206 25.2508C6.83267 25.2508 6.36813 25.3872 6.05843 25.66C5.74873 25.8938 5.57453 26.2445 5.59389 26.6342C5.59389 26.9264 5.74873 27.1992 5.98101 27.3745C6.23263 27.6083 6.83267 27.8227 7.78111 28.0175C10.1232 28.5241 11.7878 29.0307 12.8137 29.5567C13.8395 30.0828 14.5751 30.7257 15.0203 31.4856C15.4848 32.2649 15.7171 33.1612 15.7171 34.0574C15.7171 35.1485 15.388 36.2201 14.788 37.1359C14.1492 38.0906 13.2589 38.8309 12.2136 39.2791C11.1103 39.7662 9.71671 40.0195 8.0521 40.0195C5.10999 40.0195 3.0776 39.4544 1.9356 38.3049C0.793596 37.1359 0.154848 35.6941 0 33.9405H0Z" fill="#414141"/>
<path d="M25.7435 32.5767L30.4276 33.999C30.176 35.1875 29.6534 36.3176 28.9372 37.3112C28.2791 38.188 27.4081 38.8699 26.4209 39.3181C25.4144 39.7662 24.1369 40 22.5884 40C20.7109 40 19.1624 39.7272 17.9817 39.1817C16.7816 38.6361 15.7558 37.6619 14.8847 36.2786C14.0137 34.8953 13.5879 33.1223 13.5879 30.9596C13.5879 28.076 14.3428 25.8548 15.8719 24.3156C17.401 22.7764 19.5495 21.9971 22.3368 21.9971C24.524 21.9971 26.2274 22.4452 27.4855 23.322C28.7243 24.2182 29.6534 25.5821 30.2728 27.4135L25.5499 28.4657C25.4338 28.0565 25.2596 27.6473 25.0273 27.2966C24.737 26.8875 24.3692 26.5757 23.924 26.3419C23.4788 26.1081 22.9756 26.0107 22.4723 26.0107C21.2529 26.0107 20.3238 26.4978 19.685 27.4915C19.2011 28.2124 18.9495 29.3619 18.9495 30.9206C18.9495 32.8495 19.2398 34.1744 19.8205 34.8953C20.4012 35.6162 21.2142 35.9669 22.2787 35.9669C23.3046 35.9669 24.0788 35.6746 24.6015 35.1096C25.1241 34.5056 25.5112 33.6678 25.7435 32.5767ZM36.6796 22.2893H42.0219V28.3877H47.8674V22.2893H53.2483V39.7077H47.8674V32.6546H42.0219V39.7077H36.6796V22.2893V22.2893Z" fill="#414141"/>
<path d="M52.5129 30.9985C52.5129 28.1539 53.3065 25.9327 54.8744 24.3545C56.4422 22.7764 58.6488 21.9775 61.4554 21.9775C64.3395 21.9775 66.546 22.7569 68.1139 24.3156C69.6817 25.8743 70.456 28.0564 70.456 30.8621C70.456 32.9079 70.1076 34.564 69.4301 35.8694C68.772 37.1553 67.7461 38.2074 66.488 38.9089C65.1911 39.6298 63.5846 39.9999 61.6683 39.9999C59.7134 39.9999 58.1068 39.6882 56.8293 39.0647C55.5131 38.4023 54.4292 37.3696 53.713 36.1032C52.9194 34.7394 52.5129 33.0443 52.5129 30.9985ZM57.8552 31.018C57.8552 32.7715 58.1843 34.0379 58.823 34.8173C59.4617 35.5771 60.3521 35.9668 61.4748 35.9668C62.6168 35.9668 63.5072 35.5966 64.1459 34.8368C64.7846 34.0769 65.0943 32.7325 65.0943 30.7842C65.0943 29.1475 64.7653 27.9395 64.1072 27.1992C63.4491 26.4393 62.5587 26.0691 61.4361 26.0691C60.4489 26.0301 59.5005 26.4588 58.8424 27.2186C58.1843 27.9785 57.8552 29.245 57.8552 31.018V31.018ZM75.9337 30.9985C75.9337 28.1539 76.7273 25.9327 78.2951 24.3545C79.863 22.7764 82.0696 21.9775 84.8762 21.9775C87.7602 21.9775 89.9862 22.7569 91.5346 24.3156C93.0831 25.8743 93.8767 28.0564 93.8767 30.8621C93.8767 32.9079 93.5283 34.564 92.8509 35.8694C92.1928 37.1553 91.1669 38.2074 89.9087 38.9089C88.6119 39.6298 87.0053 39.9999 85.0891 39.9999C83.1341 39.9999 81.5276 39.6882 80.2501 39.0647C78.9339 38.4023 77.85 37.3696 77.1338 36.1032C76.3402 34.7394 75.9337 33.0443 75.9337 30.9985V30.9985ZM81.276 31.018C81.276 32.7715 81.605 34.0379 82.2438 34.8173C82.8825 35.5771 83.7729 35.9668 84.8955 35.9668C86.0375 35.9668 86.9279 35.5966 87.5667 34.8368C88.2054 34.0769 88.5151 32.7325 88.5151 30.7842C88.5151 29.1475 88.1861 27.9395 87.528 27.1992C86.8699 26.4393 85.9795 26.0691 84.8568 26.0691C83.8697 26.0301 82.9019 26.4588 82.2631 27.2186C81.605 27.9785 81.276 29.245 81.276 31.018V31.018Z" fill="#414141"/>
<path d="M93.3153 22.2893H98.6575V35.4213H107V39.7077H93.2959V22.2893H93.3153Z" fill="#414141"/>
<path d="M90.733 6.33387C93.8484 10.4952 92.3615 17.1084 87.1272 21.0789C81.893 25.0493 75.1678 24.6654 72.0524 20.5041C68.9371 16.3427 70.4239 9.72953 75.6582 5.75907C80.8924 1.78861 87.6177 2.17254 90.733 6.33387Z" stroke="#414141"/>
<path d="M75.9528 11.9435L77.8884 10.5797L80.2692 13.9893C80.6757 14.5349 80.9854 15.1194 81.2177 15.7623C81.3532 16.2494 81.3145 16.7755 81.1209 17.2431C80.8693 17.8276 80.4628 18.3147 79.9208 18.6654C79.2821 19.1135 78.7401 19.3668 78.2756 19.4448C77.8304 19.5227 77.3658 19.4448 76.94 19.2499C76.4755 19.0161 76.069 18.6849 75.7593 18.2563L77.4239 16.6976C77.5594 16.9119 77.7336 17.1067 77.9272 17.2626C78.0626 17.36 78.2175 17.4185 78.3917 17.4185C78.5272 17.4185 78.6627 17.36 78.7595 17.2821C78.953 17.1652 79.0885 16.9314 79.0692 16.6976C79.0111 16.3663 78.8756 16.0351 78.6627 15.7818L75.9528 11.9435V11.9435ZM81.7596 14.1062L83.521 12.7034C83.7146 12.9372 83.9662 13.1126 84.2372 13.21C84.6243 13.3269 85.0308 13.2489 85.3599 12.9957C85.5921 12.8398 85.7857 12.6255 85.8631 12.3527C85.9792 12.002 85.7857 11.6123 85.4373 11.4954C85.3792 11.4759 85.3211 11.4564 85.2631 11.4564C85.0308 11.437 84.6243 11.5344 84.0243 11.7877C83.0371 12.1968 82.2629 12.3527 81.6822 12.2942C81.1209 12.2358 80.5983 11.9435 80.2886 11.4564C80.0563 11.1252 79.9402 10.7355 79.9208 10.3459C79.9208 9.89775 80.037 9.44963 80.2886 9.07944C80.6563 8.55338 81.1015 8.10525 81.6435 7.75455C82.4565 7.18952 83.1726 6.91675 83.792 6.91675C84.4114 6.91675 84.9921 7.209 85.5341 7.813L83.792 9.19634C83.4436 8.74821 82.7855 8.6508 82.3403 9.0015L82.2823 9.05995C82.0887 9.17686 81.9532 9.35221 81.8758 9.56653C81.8177 9.7224 81.8564 9.89775 81.9532 10.0341C82.0306 10.1316 82.1468 10.2095 82.2823 10.2095C82.4371 10.229 82.7081 10.151 83.0952 9.97569C84.063 9.56653 84.7985 9.33272 85.3018 9.25479C85.7276 9.17686 86.1728 9.21582 86.5793 9.39118C86.947 9.54705 87.2567 9.81982 87.4697 10.151C87.7406 10.5407 87.8955 11.0083 87.9149 11.4954C87.9342 12.002 87.7987 12.4891 87.5277 12.9177C87.1793 13.4438 86.7341 13.8919 86.2115 14.2426C85.1469 14.983 84.2759 15.2947 83.5791 15.1778C82.8242 15.0609 82.2048 14.6713 81.7596 14.1062V14.1062Z" fill="#414141"/>
</g>
<defs>
<clipPath id="clip0_16_25">
<rect width="107" height="40" fill="white"/>
</clipPath>
</defs>
</svg>
