<svg width="25" height="25" viewBox="0 0 25 25" fill="none" xmlns="http://www.w3.org/2000/svg">
<rect x="0.5" y="0.5" width="4.5" height="4.5" stroke="#414141"/>
<rect x="0.5" y="13.5" width="4.5" height="4.5" stroke="#414141"/>
<rect x="0.5" y="7" width="4.5" height="4.5" stroke="#414141"/>
<rect x="0.5" y="20" width="4.5" height="4.5" stroke="#414141"/>
<rect x="7" y="0.5" width="4.5" height="4.5" stroke="#414141"/>
<rect x="7" y="13.5" width="4.5" height="4.5" stroke="#414141"/>
<rect x="7" y="7" width="4.5" height="4.5" stroke="#414141"/>
<rect x="7" y="20" width="4.5" height="4.5" stroke="#414141"/>
<rect x="13.5" y="0.5" width="4.5" height="4.5" stroke="#414141"/>
<rect x="13.5" y="13.5" width="4.5" height="4.5" stroke="#414141"/>
<rect x="13.5" y="7" width="4.5" height="4.5" stroke="#414141"/>
<rect x="13.5" y="20" width="4.5" height="4.5" stroke="#414141"/>
<rect x="20" y="0.5" width="4.5" height="4.5" stroke="#414141"/>
<rect x="20" y="13.5" width="4.5" height="4.5" stroke="#414141"/>
<rect x="20" y="7" width="4.5" height="4.5" stroke="#414141"/>
<rect x="20" y="20" width="4.5" height="4.5" stroke="#414141"/>
</svg>
